<?xml version="1.0" encoding="utf-8"?>
<!-- Generator: Adobe Illustrator 16.0.0, SVG Export Plug-In . SVG Version: 6.00 Build 0)  -->
<!DOCTYPE svg PUBLIC "-//W3C//DTD SVG 1.1//EN" "http://www.w3.org/Graphics/SVG/1.1/DTD/svg11.dtd">
<svg version="1.1" xmlns="http://www.w3.org/2000/svg" xmlns:xlink="http://www.w3.org/1999/xlink" x="0px" y="0px"
	 width="385.6699219px" height="123.3330078px" viewBox="0 0 385.6699219 123.3330078"
	 enable-background="new 0 0 385.6699219 123.3330078" xml:space="preserve">
<g id="Layer_1">
	<g>
		<path fill="#2F7CE4" d="M292.4394531,2.1108398v120.3637695h-19.7275391V44.7290039
			c0-3.1069336,0.1665039-6.4638672,0.4995117-10.0717773l-36.375,68.3388672
			c-1.7207031,3.2753906-4.3574219,4.9121094-7.9077148,4.9121094h-3.1630859c-3.5522461,0-6.1884766-1.6367188-7.9077148-4.9121094
			l-36.7915039-68.5883789c0.1665039,1.8310547,0.3041992,3.6352539,0.4160156,5.4106445
			c0.1108398,1.7763672,0.1665039,3.4125977,0.1665039,4.9106445v77.7456055h-19.7275391V2.1108398h16.8974609
			c0.9990234,0,1.8583984,0.0288086,2.5805664,0.0834961c0.7202148,0.0556641,1.3735352,0.1948242,1.9560547,0.4160156
			c0.5825195,0.2226563,1.109375,0.5830078,1.581543,1.0820313c0.4707031,0.4995117,0.9287109,1.1655273,1.3735352,1.9980469
			l36.0419922,66.840332c0.9428711,1.7763672,1.8168945,3.6079102,2.6220703,5.4946289
			c0.8037109,1.8867188,1.5947266,3.828125,2.3725586,5.8261719c0.7763672-2.0527344,1.581543-4.0371094,2.4135742-5.9511719
			c0.8325195-1.9160156,1.7197266-3.7592773,2.6640625-5.5356445l35.5424805-66.6743164
			c0.4438477-0.8325195,0.9160156-1.4985352,1.4150391-1.9980469c0.4995117-0.4990234,1.0405273-0.859375,1.6235352-1.0820313
			c0.5825195-0.2211914,1.2338867-0.3603516,1.9560547-0.4160156c0.7202148-0.0546875,1.581543-0.0834961,2.5800781-0.0834961
			H292.4394531z"/>
		<path fill="#2F7CE4" d="M383.2412109,122.4746094h-7.4804688c-0.9638672,0-1.7714844-0.15625-2.421875-0.46875
			c-0.6523438-0.3105469-1.262207-0.8925781-1.8276367-1.7421875l-38.590332-48.7895508
			c-0.4541016-0.6230469-0.9213867-1.1611328-1.4023438-1.6152344c-0.4819336-0.453125-1.0200195-0.8076172-1.6147461-1.0625
			c-0.5952148-0.2548828-1.3041992-0.4384766-2.125-0.5527344c-0.8222656-0.1123047-1.8276367-0.1699219-3.0175781-0.1699219
			h-15.7250977v54.4008789H300.28125V2.1992188h30.7700195c13.8256836,0,24.1821289,2.6772461,31.0673828,8.0322266
			c6.8847656,5.3549805,10.3276367,13.2177734,10.3276367,23.5878906c0,4.5898438-0.7944336,8.7841797-2.3803711,12.5795898
			c-1.5869141,3.7973633-3.8671875,7.1269531-6.8422852,9.987793c-2.9750977,2.8618164-6.5742188,5.199707-10.7949219,7.012207
			c-4.222168,1.8144531-8.9677734,3.0322266-14.237793,3.6552734c1.3603516,0.8496094,2.578125,1.984375,3.6552734,3.4003906
			L383.2412109,122.4746094z M329.8613281,61.6142578c5.3256836,0,10.1000977-0.6376953,14.3222656-1.9125977
			c4.2207031-1.2749023,7.7910156-3.1025391,10.7099609-5.4824219c2.9179688-2.3798828,5.1425781-5.2407227,6.6723633-8.5849609
			c1.5302734-3.3432617,2.2954102-7.1108398,2.2954102-11.3051758c0-8.5556641-2.7919922-14.902832-8.3725586-19.0400391
			c-5.5820313-4.1357422-13.7275391-6.2050781-24.4375-6.2050781h-22.0151367v52.5302734H329.8613281z"/>
	</g>
	<rect x="148.5214844" y="1.9418945" fill="#2F7CE4" width="14.0463867" height="11.0976563"/>
	<rect x="105.3417969" y="1.9267578" fill="#2F7CE4" width="29.4804688" height="11.0976563"/>
	<rect x="66.3232422" y="1.9267578" fill="#2F7CE4" width="24.7983398" height="11.0976563"/>
	<rect x="100.1391602" y="22.418457" fill="#2F7CE4" width="46.3012695" height="10.7519531"/>
	<rect x="31.4672852" y="22.418457" fill="#2F7CE4" width="51.5039063" height="10.7519531"/>
	<rect x="148.5214844" y="44.269043" fill="#2F7CE4" width="14.0463867" height="11.6186523"/>
	<rect x="102.2202148" y="44.269043" fill="#2F7CE4" width="29.4804688" height="11.6186523"/>
	<rect x="62.1616211" y="44.269043" fill="#2F7CE4" width="24.7983398" height="11.6186523"/>
	<rect x="31.4672852" y="44.269043" fill="#2F7CE4" width="16.3007813" height="11.6186523"/>
	<rect x="116.9599609" y="66.6391602" fill="#2F7CE4" width="45.6079102" height="11.0991211"/>
	<rect x="47.7680664" y="66.6391602" fill="#2F7CE4" width="50.9833984" height="11.0991211"/>
	<rect x="15.1665039" y="66.6391602" fill="#2F7CE4" width="14.3930664" height="11.0991211"/>
	<rect x="131.7006836" y="88.1425781" fill="#2F7CE4" width="30.8671875" height="11.0976563"/>
	<rect x="62.1616211" y="88.1425781" fill="#2F7CE4" width="52.0239258" height="11.0976563"/>
	<rect x="1.6401367" y="88.1425781" fill="#2F7CE4" width="48.2089844" height="11.0976563"/>
	<rect x="101.1796875" y="110.5292969" fill="#2F7CE4" width="61.7353516" height="11.7910156"/>
	<rect x="47.4492188" y="110.5292969" fill="#2F7CE4" width="39.1918945" height="11.7910156"/>
</g>
<g id="Layer_2">
</g>
</svg>
