<?xml version="1.0" encoding="utf-8"?>
<!-- Generator: Adobe Illustrator 16.0.0, SVG Export Plug-In . SVG Version: 6.00 Build 0)  -->
<!DOCTYPE svg PUBLIC "-//W3C//DTD SVG 1.1//EN" "http://www.w3.org/Graphics/SVG/1.1/DTD/svg11.dtd">
<svg version="1.1" xmlns="http://www.w3.org/2000/svg" xmlns:xlink="http://www.w3.org/1999/xlink" x="0px" y="0px" width="814.5px"
	 height="126.205px" viewBox="0 0 814.5 126.205" enable-background="new 0 0 814.5 126.205" xml:space="preserve">
<g id="Layer_1">
	<g>
		<path fill="#2F7CE4" d="M293.27,3.329v120.364h-19.728V45.947c0-3.107,0.167-6.464,0.5-10.072l-36.375,68.339
			c-1.721,3.275-4.357,4.912-7.908,4.912h-3.163c-3.552,0-6.188-1.637-7.908-4.912l-36.792-68.588
			c0.167,1.831,0.304,3.635,0.416,5.411c0.111,1.776,0.167,3.413,0.167,4.911v77.746h-19.728V3.329h16.897
			c0.999,0,1.858,0.029,2.581,0.083c0.72,0.056,1.374,0.195,1.956,0.416c0.583,0.223,1.109,0.583,1.582,1.082
			c0.471,0.5,0.929,1.166,1.374,1.998l36.042,66.84c0.943,1.776,1.817,3.608,2.622,5.495c0.804,1.887,1.595,3.828,2.373,5.826
			c0.776-2.053,1.582-4.037,2.414-5.951c0.833-1.916,1.72-3.759,2.664-5.536l35.542-66.674c0.444-0.833,0.916-1.499,1.415-1.998
			c0.5-0.499,1.041-0.859,1.624-1.082c0.583-0.221,1.234-0.36,1.956-0.416c0.72-0.055,1.582-0.083,2.58-0.083H293.27z"/>
		<path fill="#2F7CE4" d="M380.504,38.29v85.403h-12.569c-2.719,0-4.44-1.25-5.161-3.746l-1.415-6.826
			c-3.496,3.553-7.354,6.424-11.57,8.615c-4.218,2.191-9.185,3.289-14.899,3.289c-4.662,0-8.782-0.791-12.361-2.373
			c-3.579-1.582-6.59-3.814-9.031-6.701c-2.442-2.885-4.287-6.311-5.535-10.279c-1.249-3.967-1.873-8.338-1.873-13.109V38.29h20.56
			v54.272c0,5.217,1.207,9.252,3.621,12.109c2.414,2.859,6.035,4.287,10.863,4.287c3.551,0,6.88-0.791,9.989-2.371
			c3.107-1.582,6.048-3.76,8.823-6.535V38.29H380.504z"/>
		<path fill="#2F7CE4" d="M444.597,54.938c-0.555,0.888-1.138,1.512-1.748,1.873c-0.611,0.362-1.388,0.541-2.33,0.541
			c-0.999,0-2.068-0.277-3.205-0.832c-1.138-0.554-2.455-1.179-3.954-1.873c-1.498-0.693-3.204-1.317-5.119-1.873
			c-1.914-0.554-4.176-0.832-6.783-0.832c-4.052,0-7.229,0.861-9.531,2.58c-2.304,1.721-3.454,3.968-3.454,6.742
			c0,1.832,0.596,3.372,1.789,4.62s2.774,2.345,4.745,3.288c1.969,0.944,4.203,1.79,6.7,2.539s5.036,1.568,7.616,2.455
			c2.581,0.889,5.119,1.901,7.617,3.038c2.497,1.139,4.729,2.582,6.7,4.33c1.969,1.748,3.551,3.842,4.745,6.283
			c1.192,2.443,1.789,5.385,1.789,8.824c0,4.107-0.736,7.895-2.206,11.361c-1.471,3.469-3.649,6.465-6.534,8.99
			c-2.886,2.525-6.451,4.494-10.696,5.91c-4.245,1.414-9.143,2.123-14.691,2.123c-2.941,0-5.813-0.266-8.615-0.791
			c-2.803-0.529-5.493-1.262-8.074-2.207c-2.58-0.941-4.967-2.051-7.158-3.328c-2.192-1.277-4.12-2.664-5.785-4.162l4.745-7.824
			c0.609-0.943,1.331-1.666,2.164-2.164c0.832-0.5,1.886-0.75,3.163-0.75c1.275,0,2.482,0.361,3.62,1.082
			c1.137,0.723,2.456,1.498,3.954,2.33c1.498,0.834,3.26,1.611,5.286,2.332c2.024,0.721,4.591,1.082,7.699,1.082
			c2.441,0,4.536-0.291,6.284-0.875c1.748-0.582,3.19-1.344,4.329-2.289c1.137-0.943,1.969-2.039,2.497-3.287
			c0.526-1.248,0.791-2.539,0.791-3.871c0-1.998-0.598-3.635-1.79-4.91c-1.194-1.277-2.775-2.387-4.745-3.33
			s-4.218-1.789-6.742-2.539c-2.525-0.75-5.105-1.566-7.741-2.455c-2.636-0.887-5.217-1.928-7.741-3.121
			c-2.525-1.193-4.772-2.707-6.742-4.537c-1.97-1.832-3.552-4.079-4.744-6.743c-1.194-2.663-1.79-5.881-1.79-9.656
			c0-3.496,0.693-6.825,2.081-9.988c1.387-3.163,3.426-5.923,6.118-8.282c2.69-2.358,6.048-4.245,10.072-5.661
			c4.022-1.415,8.669-2.123,13.942-2.123c5.881,0,11.237,0.972,16.064,2.914c4.828,1.943,8.851,4.495,12.07,7.658L444.597,54.938z"
			/>
		<path fill="#2F7CE4" d="M485.801,125.025c-7.438,0-13.139-2.094-17.105-6.285c-3.969-4.189-5.952-9.975-5.952-17.355V53.688h-8.74
			c-1.11,0-2.054-0.36-2.83-1.082c-0.777-0.72-1.165-1.803-1.165-3.246v-8.157l13.734-2.248l4.328-23.307
			c0.277-1.109,0.804-1.969,1.582-2.58c0.776-0.61,1.775-0.916,2.996-0.916h10.655v26.886h22.807v14.65h-22.807V99.97
			c0,2.662,0.651,4.744,1.956,6.242c1.303,1.498,3.093,2.248,5.368,2.248c1.276,0,2.344-0.152,3.205-0.459
			c0.859-0.305,1.608-0.623,2.247-0.957c0.638-0.332,1.207-0.652,1.707-0.957c0.499-0.305,0.999-0.457,1.498-0.457
			c0.61,0,1.109,0.152,1.498,0.457c0.388,0.305,0.804,0.764,1.249,1.373l6.159,9.988c-2.996,2.498-6.438,4.385-10.321,5.66
			C493.985,124.386,489.962,125.025,485.801,125.025z"/>
		<path fill="#2F7CE4" d="M599.42,123.693h-7.325c-0.944,0-1.734-0.152-2.372-0.459c-0.639-0.303-1.235-0.873-1.79-1.705
			l-37.79-47.78c-0.444-0.609-0.902-1.137-1.373-1.581c-0.473-0.443-0.999-0.791-1.582-1.041c-0.582-0.249-1.277-0.429-2.081-0.541
			c-0.805-0.11-1.789-0.166-2.955-0.166h-15.398v53.273h-8.574V5.91h30.133c13.539,0,23.682,2.622,30.424,7.866
			s10.113,12.943,10.113,23.099c0,4.495-0.777,8.602-2.331,12.319c-1.554,3.718-3.787,6.979-6.7,9.78
			c-2.913,2.803-6.438,5.092-10.571,6.867c-4.135,1.777-8.782,2.969-13.942,3.58c1.332,0.832,2.524,1.943,3.579,3.329
			L599.42,123.693z M547.146,64.094c5.215,0,9.891-0.625,14.025-1.873c4.133-1.249,7.629-3.038,10.488-5.369
			c2.857-2.331,5.036-5.132,6.534-8.407c1.498-3.274,2.247-6.963,2.247-11.071c0-8.378-2.733-14.594-8.199-18.646
			c-5.466-4.05-13.442-6.077-23.931-6.077h-21.559v51.442H547.146z"/>
		<path fill="#2F7CE4" d="M603.666,52.606c4.328-4.328,8.878-7.602,13.651-9.822c4.771-2.219,10.183-3.33,16.231-3.33
			c4.438,0,8.324,0.708,11.653,2.123c3.33,1.415,6.09,3.441,8.282,6.076c2.191,2.636,3.842,5.827,4.953,9.573
			c1.109,3.746,1.664,7.922,1.664,12.527v53.939h-3.163c-1.664,0-2.691-0.777-3.079-2.332l-1.166-10.654
			c-2.275,2.221-4.536,4.219-6.783,5.994c-2.248,1.775-4.593,3.275-7.034,4.494c-2.442,1.221-5.077,2.164-7.907,2.83
			s-5.938,1-9.323,1c-2.83,0-5.577-0.416-8.24-1.25c-2.664-0.832-5.036-2.107-7.117-3.828c-2.081-1.719-3.746-3.926-4.994-6.617
			c-1.249-2.691-1.873-5.924-1.873-9.697c0-3.496,0.999-6.742,2.997-9.74c1.997-2.996,5.132-5.604,9.405-7.824
			c4.272-2.219,9.752-3.994,16.439-5.326c6.687-1.332,14.72-2.109,24.098-2.332v-8.656c0-7.658-1.651-13.554-4.952-17.688
			c-3.303-4.133-8.199-6.201-14.691-6.201c-3.996,0-7.396,0.555-10.197,1.665c-2.803,1.111-5.175,2.331-7.117,3.663
			c-1.942,1.332-3.524,2.553-4.744,3.663c-1.222,1.111-2.247,1.665-3.08,1.665c-0.611,0-1.11-0.138-1.498-0.417
			c-0.389-0.277-0.722-0.637-0.999-1.082L603.666,52.606z M652.36,83.654c-7.88,0.279-14.664,0.904-20.352,1.873
			c-5.688,0.973-10.377,2.289-14.067,3.955c-3.691,1.664-6.424,3.648-8.199,5.951c-1.776,2.303-2.663,4.926-2.663,7.865
			c0,2.775,0.458,5.176,1.373,7.201c0.916,2.025,2.136,3.691,3.663,4.994c1.525,1.305,3.287,2.262,5.285,2.871
			c1.998,0.611,4.079,0.916,6.243,0.916c3.218,0,6.173-0.346,8.865-1.041c2.69-0.693,5.188-1.664,7.491-2.912
			c2.302-1.25,4.453-2.732,6.451-4.453c1.997-1.721,3.967-3.58,5.909-5.578V83.654z"/>
		<path fill="#2F7CE4" d="M733.935,51.941c-0.278,0.278-0.541,0.514-0.791,0.708c-0.25,0.195-0.597,0.291-1.04,0.291
			c-0.556,0-1.305-0.375-2.248-1.124c-0.944-0.749-2.22-1.567-3.829-2.456c-1.609-0.887-3.62-1.707-6.034-2.456
			s-5.342-1.124-8.782-1.124c-4.772,0-9.004,0.847-12.693,2.539c-3.691,1.693-6.813,4.12-9.364,7.283
			c-2.554,3.163-4.482,6.992-5.785,11.487c-1.305,4.495-1.956,9.544-1.956,15.149c0,5.826,0.679,10.986,2.039,15.482
			c1.359,4.494,3.288,8.281,5.785,11.361s5.521,5.426,9.073,7.033c3.551,1.611,7.491,2.414,11.819,2.414
			c3.996,0,7.338-0.471,10.03-1.414c2.691-0.943,4.911-1.969,6.659-3.08c1.748-1.109,3.122-2.135,4.12-3.08
			c0.999-0.943,1.832-1.414,2.497-1.414c0.666,0,1.221,0.277,1.665,0.832l2.081,2.664c-1.277,1.664-2.886,3.219-4.828,4.66
			c-1.942,1.443-4.134,2.693-6.575,3.746c-2.442,1.055-5.092,1.873-7.949,2.455c-2.859,0.584-5.842,0.875-8.948,0.875
			c-5.272,0-10.087-0.957-14.442-2.873c-4.356-1.914-8.103-4.688-11.237-8.322c-3.136-3.635-5.577-8.088-7.324-13.361
			c-1.748-5.271-2.622-11.264-2.622-17.979c0-6.327,0.832-12.097,2.497-17.314c1.664-5.215,4.105-9.71,7.324-13.484
			c3.218-3.773,7.145-6.701,11.778-8.782c4.633-2.081,9.947-3.122,15.94-3.122c5.382,0,10.155,0.861,14.317,2.581
			c4.162,1.721,7.796,4.051,10.904,6.992L733.935,51.941z"/>
		<path fill="#2F7CE4" d="M749.667,78.994v1.582c0,6.215,0.721,11.682,2.164,16.396c1.442,4.719,3.496,8.672,6.159,11.861
			c2.664,3.193,5.882,5.592,9.656,7.201c3.772,1.609,7.991,2.414,12.652,2.414c4.162,0,7.769-0.459,10.821-1.373
			c3.051-0.916,5.618-1.943,7.699-3.08s3.731-2.164,4.952-3.08s2.108-1.373,2.664-1.373c0.721,0,1.276,0.277,1.665,0.832
			l2.164,2.664c-1.332,1.664-3.095,3.219-5.286,4.66c-2.192,1.443-4.634,2.678-7.324,3.705c-2.692,1.027-5.577,1.846-8.657,2.455
			s-6.174,0.916-9.281,0.916c-5.66,0-10.821-0.986-15.482-2.955s-8.656-4.842-11.986-8.615c-3.329-3.773-5.896-8.393-7.699-13.859
			c-1.804-5.465-2.705-11.723-2.705-18.77c0-5.938,0.845-11.417,2.538-16.44c1.692-5.022,4.134-9.35,7.325-12.985
			c3.19-3.634,7.103-6.479,11.736-8.532c4.633-2.053,9.892-3.08,15.774-3.08c4.661,0,8.989,0.805,12.985,2.414
			c3.995,1.61,7.463,3.954,10.404,7.034c2.94,3.08,5.257,6.867,6.95,11.362c1.692,4.495,2.539,9.656,2.539,15.482
			c0,1.222-0.166,2.054-0.499,2.498c-0.333,0.445-0.889,0.666-1.665,0.666H749.667z M804.938,73.916
			c0-4.439-0.625-8.42-1.873-11.945c-1.249-3.523-3.011-6.505-5.286-8.948c-2.275-2.441-4.98-4.314-8.115-5.619
			c-3.136-1.303-6.59-1.956-10.363-1.956c-4.273,0-8.103,0.666-11.487,1.998s-6.313,3.246-8.781,5.744
			c-2.47,2.497-4.453,5.494-5.952,8.99c-1.498,3.496-2.497,7.408-2.996,11.737H804.938z"/>
	</g>
	<rect x="149.352" y="3.311" fill="#2F7CE4" width="14.046" height="11.098"/>
	<rect x="106.172" y="3.295" fill="#2F7CE4" width="29.48" height="11.098"/>
	<rect x="67.153" y="3.295" fill="#2F7CE4" width="24.798" height="11.098"/>
	<rect x="100.969" y="23.787" fill="#2F7CE4" width="46.301" height="10.752"/>
	<rect x="32.297" y="23.787" fill="#2F7CE4" width="51.504" height="10.752"/>
	<rect x="149.352" y="45.638" fill="#2F7CE4" width="14.046" height="11.619"/>
	<rect x="103.05" y="45.638" fill="#2F7CE4" width="29.48" height="11.619"/>
	<rect x="62.992" y="45.638" fill="#2F7CE4" width="24.798" height="11.619"/>
	<rect x="32.297" y="45.638" fill="#2F7CE4" width="16.301" height="11.619"/>
	<rect x="117.79" y="68.008" fill="#2F7CE4" width="45.608" height="11.099"/>
	<rect x="48.598" y="68.008" fill="#2F7CE4" width="50.983" height="11.099"/>
	<rect x="15.997" y="68.008" fill="#2F7CE4" width="14.393" height="11.099"/>
	<rect x="132.531" y="89.511" fill="#2F7CE4" width="30.867" height="11.098"/>
	<rect x="62.992" y="89.511" fill="#2F7CE4" width="52.024" height="11.098"/>
	<rect x="2.47" y="89.511" fill="#2F7CE4" width="48.209" height="11.098"/>
	<rect x="102.01" y="111.898" fill="#2F7CE4" width="61.735" height="11.791"/>
	<rect x="48.279" y="111.898" fill="#2F7CE4" width="39.192" height="11.791"/>
</g>
<g id="Layer_2">
</g>
</svg>
